<?xml version="1.0" encoding="UTF-8"?>
<svg width="256" height="256" viewBox="0 0 256 256" xmlns="http://www.w3.org/2000/svg" role="img" aria-label="Scentistry logo">
  <defs>
    <linearGradient id="g" x1="0" x2="0" y1="0" y2="1">
      <stop offset="0%" stop-color="#E8C872"/>
      <stop offset="100%" stop-color="#B88A2E"/>
    </linearGradient>
  </defs>
  <circle cx="128" cy="128" r="118" fill="url(#g)" stroke="#3C2F12" stroke-width="8"/>
  <path d="M128 56c14 16-6 28 0 44 4 12 20 16 20 30 0 22-24 26-24 48 0 10 4 18 8 22-24 0-44-16-44-40 0-16 10-28 20-36 14-12 12-24 8-34-4-10 0-22 12-34z" fill="#F6E7B1" opacity="0.85"/>
  <path d="M110 196c12-6 40-6 52 0-6 14-20 22-36 22s-28-8-16-22z" fill="#8C6C1A" opacity="0.35"/>
</svg>
